<svg width="1200" height="800" xmlns="http://www.w3.org/2000/svg">
    <rect width="100%" height="100%" fill="#f8f8f8"/>

    <!-- Phone 1 -->
    <rect x="120" y="80" width="240" height="500" rx="30" fill="#1a1a1a"/>
    <rect x="130" y="90" width="220" height="480" rx="24" fill="#ffffff"/>
    <rect x="190" y="95" width="100" height="20" rx="10" fill="#1a1a1a"/>
    <rect x="150" y="130" width="180" height="120" fill="#f0f0f0"/>
    <rect x="150" y="270" width="180" height="60" rx="8" fill="#f5f5f5"/>
    <rect x="150" y="350" width="180" height="60" rx="8" fill="#f5f5f5"/>
    <rect x="150" y="430" width="180" height="60" rx="8" fill="#f5f5f5"/>
    <circle cx="240" cy="550" r="20" fill="#f0f0f0"/>

    <!-- Phone 2 -->
    <rect x="480" y="80" width="240" height="500" rx="30" fill="#1a1a1a"/>
    <rect x="490" y="90" width="220" height="480" rx="24" fill="#ffffff"/>
    <rect x="550" y="95" width="100" height="20" rx="10" fill="#1a1a1a"/>
    <rect x="510" y="130" width="180" height="200" fill="#9b59b6" opacity="0.2"/>
    <rect x="510" y="350" width="85" height="85" rx="8" fill="#f0f0f0"/>
    <rect x="605" y="350" width="85" height="85" rx="8" fill="#f0f0f0"/>
    <rect x="510" y="450" width="180" height="40" rx="8" fill="#1a1a1a"/>
    <circle cx="600" cy="550" r="20" fill="#f0f0f0"/>

    <!-- Phone 3 -->
    <rect x="840" y="80" width="240" height="500" rx="30" fill="#1a1a1a"/>
    <rect x="850" y="90" width="220" height="480" rx="24" fill="#ffffff"/>
    <rect x="910" y="95" width="100" height="20" rx="10" fill="#1a1a1a"/>
    <circle cx="960" cy="250" r="60" fill="#f0f0f0"/>
    <rect x="890" y="330" width="140" height="16" rx="4" fill="#e0e0e0"/>
    <rect x="910" y="360" width="100" height="12" rx="4" fill="#f0f0f0"/>
    <rect x="870" y="400" width="180" height="50" rx="8" fill="#f5f5f5"/>
    <rect x="870" y="460" width="180" height="50" rx="8" fill="#f5f5f5"/>
    <circle cx="960" cy="550" r="20" fill="#f0f0f0"/>

    <!-- Label -->
    <text x="600" y="680" font-family="Inter, Arial, sans-serif" font-size="12" fill="#888888" text-anchor="middle"
          letter-spacing="0.3em">MOBILE APP · iOS &amp; ANDROID
    </text>
</svg>
